<?xml version="1.0" standalone="no"?><svg xmlns="http://www.w3.org/2000/svg" viewBox="0 0 1440 320"><path fill="#4622ca" fill-opacity="1" d="M0,128L30,138.7C60,149,120,171,180,165.3C240,160,300,128,360,144C420,160,480,224,540,250.7C600,277,660,267,720,256C780,245,840,235,900,229.3C960,224,1020,224,1080,234.7C1140,245,1200,267,1260,234.7C1320,203,1380,117,1410,74.7L1440,32L1440,320L1410,320C1380,320,1320,320,1260,320C1200,320,1140,320,1080,320C1020,320,960,320,900,320C840,320,780,320,720,320C660,320,600,320,540,320C480,320,420,320,360,320C300,320,240,320,180,320C120,320,60,320,30,320L0,320Z"></path></svg>