<?xml version="1.0" standalone="no"?><svg xmlns="http://www.w3.org/2000/svg" viewBox="0 0 1440 320"><path fill="#4622ca" fill-opacity="1" d="M0,256L30,218.7C60,181,120,107,180,80C240,53,300,75,360,101.3C420,128,480,160,540,154.7C600,149,660,107,720,106.7C780,107,840,149,900,186.7C960,224,1020,256,1080,229.3C1140,203,1200,117,1260,85.3C1320,53,1380,75,1410,85.3L1440,96L1440,0L1410,0C1380,0,1320,0,1260,0C1200,0,1140,0,1080,0C1020,0,960,0,900,0C840,0,780,0,720,0C660,0,600,0,540,0C480,0,420,0,360,0C300,0,240,0,180,0C120,0,60,0,30,0L0,0Z"></path></svg>